<svg width="380" height="110" xmlns="http://www.w3.org/2000/svg" xmlns:xlink="http://www.w3.org/1999/xlink" preserveAspectRatio="none">
 <g>
  <title>background</title>
  <rect x="-1" y="-1" width="382" height="112" id="background" fill="none"/>
 </g>
 <g>
  <title>Layer 1</title>
  <svg width="92.4093" height="89.5214" x="1" y="10.9893" preserveAspectRatio="none" viewBox="20 22.5 160 155" id="svg_1">
   <g id="svg_2">
    <g id="svg_3">
     <path fill="#FF834F" d="m91.9,177.5l-71.9,-41.4l0,-61.5l71.9,41.4l0,61.5z" class="icon1b5ede1d6-c0cb-41cd-905c-88dcf3d15b4d" id="svg_8"/>
     <path fill="#FF4949" d="m91.9,177.5l0,-61.5l88.1,-50.9l0,60.9l-88.1,50.9" class="icon2b5ede1d6-c0cb-41cd-905c-88dcf3d15b4d" id="svg_7"/>
     <path fill="#FF834F" d="m20,74.6l89.6,-52.1l70.4,42.6l-88.1,50.9l-71.9,-41.4z" class="icon1b5ede1d6-c0cb-41cd-905c-88dcf3d15b4d" id="svg_6"/>
     <path fill="#FFAE78" d="m44.4,75.3l44.8,26.4l66,-39.4l-44,-25.6l-66.8,38.6z" class="icon3b5ede1d6-c0cb-41cd-905c-88dcf3d15b4d" id="svg_5"/>
     <path fill="#FF4949" d="m111.2,36.7l0,51.9l44,-26.3l-44,-25.6z" class="icon2b5ede1d6-c0cb-41cd-905c-88dcf3d15b4d" id="svg_4"/>
    </g>
   </g>
  </svg>
  <svg width="243.5186" height="68.8626" x="135.4814" y="8.3187" preserveAspectRatio="none" viewBox="0.32 -31.48 138.76000000000002 39.24" id="svg_10">
   <g fill="#4D4D4D" class="b5ede1d6-c0cb-41cd-905c-88dcf3d15b4d" id="svg_11">
    <path id="svg_12" d="m9.72,-21.96l0,0.92l5.52,0l0,4.8l-5.36,0l0,16.24l-6.24,0l0,-16.24l-3.32,0l0,-4.8l3.32,0l0,-0.96q0,-3.68 2.18,-5.84q2.18,-2.16 6.14,-2.16l0,0q1.4,0 2.66,0.3q1.26,0.3 2.1,0.86l0,0l-1.64,4.52q-1.08,-0.76 -2.52,-0.76l0,0q-2.84,0 -2.84,3.12l0,0zm11.84,21.96l0,-21.52l6.24,0l0,21.52l-6.24,0zm3.12,-24.52q-1.72,0 -2.8,-1q-1.08,-1 -1.08,-2.48l0,0q0,-1.48 1.08,-2.48q1.08,-1 2.8,-1l0,0q1.72,0 2.8,0.96q1.08,0.96 1.08,2.4l0,0q0,1.56 -1.08,2.58q-1.08,1.02 -2.8,1.02l0,0zm14.88,5.84q1.12,-1.56 3.02,-2.36q1.9,-0.8 4.38,-0.8l0,0l0,5.76q-1.04,-0.08 -1.4,-0.08l0,0q-2.68,0 -4.2,1.5q-1.52,1.5 -1.52,4.5l0,0l0,10.16l-6.24,0l0,-21.52l5.96,0l0,2.84zm32,8q0,0.12 -0.12,1.68l0,0l-16.28,0q0.44,2 2.08,3.16q1.64,1.16 4.08,1.16l0,0q1.68,0 2.98,-0.5q1.3,-0.5 2.42,-1.58l0,0l3.32,3.6q-3.04,3.48 -8.88,3.48l0,0q-3.64,0 -6.44,-1.42q-2.8,-1.42 -4.32,-3.94q-1.52,-2.52 -1.52,-5.72l0,0q0,-3.16 1.5,-5.7q1.5,-2.54 4.12,-3.96q2.62,-1.42 5.86,-1.42l0,0q3.16,0 5.72,1.36q2.56,1.36 4.02,3.9q1.46,2.54 1.46,5.9l0,0zm-11.16,-6.44q-2.12,0 -3.56,1.2q-1.44,1.2 -1.76,3.28l0,0l10.6,0q-0.32,-2.04 -1.76,-3.26q-1.44,-1.22 -3.52,-1.22l0,0zm21.28,-1.56q1.12,-1.56 3.02,-2.36q1.9,-0.8 4.38,-0.8l0,0l0,5.76q-1.04,-0.08 -1.4,-0.08l0,0q-2.68,0 -4.2,1.5q-1.52,1.5 -1.52,4.5l0,0l0,10.16l-6.24,0l0,-21.52l5.96,0l0,2.84zm23.84,-3.16q3,0 5.46,1.38q2.46,1.38 3.86,3.88q1.4,2.5 1.4,5.82l0,0q0,3.32 -1.4,5.82q-1.4,2.5 -3.86,3.88q-2.46,1.38 -5.46,1.38l0,0q-4.12,0 -6.48,-2.6l0,0l0,10.04l-6.24,0l0,-29.28l5.96,0l0,2.48q2.32,-2.8 6.76,-2.8l0,0zm-1.08,17.04q2.4,0 3.94,-1.62q1.54,-1.62 1.54,-4.34l0,0q0,-2.72 -1.54,-4.34q-1.54,-1.62 -3.94,-1.62l0,0q-2.4,0 -3.94,1.62q-1.54,1.62 -1.54,4.34l0,0q0,2.72 1.54,4.34q1.54,1.62 3.94,1.62l0,0zm24.28,-17.04q5,0 7.68,2.38q2.68,2.38 2.68,7.18l0,0l0,12.28l-5.84,0l0,-2.68q-1.76,3 -6.56,3l0,0q-2.48,0 -4.3,-0.84q-1.82,-0.84 -2.78,-2.32q-0.96,-1.48 -0.96,-3.36l0,0q0,-3 2.26,-4.72q2.26,-1.72 6.98,-1.72l0,0l4.96,0q0,-2.04 -1.24,-3.14q-1.24,-1.1 -3.72,-1.1l0,0q-1.72,0 -3.38,0.54q-1.66,0.54 -2.82,1.46l0,0l-2.24,-4.36q1.76,-1.24 4.22,-1.92q2.46,-0.68 5.06,-0.68l0,0zm-0.48,17.96q1.6,0 2.84,-0.74q1.24,-0.74 1.76,-2.18l0,0l0,-2.2l-4.28,0q-3.84,0 -3.84,2.52l0,0q0,1.2 0.94,1.9q0.94,0.7 2.58,0.7l0,0z"/>
   </g>
  </svg>
  <g id="svg_05" transform="matrix(1,0,0,0.9252878204375641,0,4.613481394000623) " stroke="null">
   <svg width="4.1318" height="106.0485" x="114.0681" y="1.16059" preserveAspectRatio="none" viewBox="0 0 4.1318 106.0485" id="svg_14" stroke="null">
    <defs stroke="null">
     <rect x="0" y="0" width="4.1318" height="106.0485" rx="0px" ry="0px" id="svg_16" stroke="null"/>
    </defs>
    <use xlink:href="#svg_16" fill="#4D4D4D" class="b5ede1d6-c0cb-41cd-905c-88dcf3d15b4d shapeStroke-strb5ede1d6-c0cb-41cd-905c-88dcf3d15b4d" stroke-width="0" id="svg_15" stroke="#313131"/>
   </svg>
  </g>
  <text transform="matrix(1, 0, 0, 1.02566, 0, -1.97336)" font-weight="normal" xml:space="preserve" text-anchor="start" font-size="18" stroke-width="0" fill="#000000" id="svg_18" y="101.77501" x="304">LAMDA</text>
 </g>
</svg>