<svg xmlns="http://www.w3.org/2000/svg" version="1.1" xmlns:xlink="http://www.w3.org/1999/xlink" xmlns:svgjs="http://svgjs.dev/svgjs" width="1000" height="313" viewBox="0 0 1000 313"><g transform="matrix(1,0,0,1,-0.6060606060606233,-0.3709896452435544)"><svg viewBox="0 0 396 124" data-background-color="#ffffff" preserveAspectRatio="xMidYMid meet" height="313" width="1000" xmlns="http://www.w3.org/2000/svg" xmlns:xlink="http://www.w3.org/1999/xlink"><g id="tight-bounds" transform="matrix(1,0,0,1,0.2400000000000091,0.1469735335789153)"><svg viewBox="0 0 395.52 123.70605293284216" height="123.70605293284216" width="395.52"><g><svg viewBox="0 0 395.52 123.70605293284216" height="123.70605293284216" width="395.52"><g><svg viewBox="0 0 395.52 123.70605293284216" height="123.70605293284216" width="395.52"><g><svg viewBox="0 0 395.52 123.70605293284216" height="123.70605293284216" width="395.52"><g><svg viewBox="0 0 395.52 123.70605293284216" height="123.70605293284216" width="395.52"><rect width="395.52" height="123.70605293284216" x="0" y="0" opacity="1" fill="#3d3839" data-fill-palette-color="tertiary"></rect><g transform="matrix(1,0,0,1,23.607599999999998,23.607599999999998)"><svg width="348.3048" viewBox="5.739999771118164 -37.84000015258789 172.29998779296875 37.84000015258789" height="76.49085293284216" data-palette-color="#ffffff"><path d="M5.74 0L5.74-37.35 9.89-37.35 9.89-3.59 24.68-3.59 24.68 0 5.74 0ZM26.24 0L38.47-37.35 44.16-37.35 57.22 0 52.81 0 49.09-10.96 34.06-10.96 30.54 0 26.24 0ZM35.18-14.45L47.92-14.45 41.33-34.06 40.57-31.27 35.18-14.45ZM61.42 0L67.18-37.35 73.55-37.35 82.05-9.77 83.49-3.81 84.88-9.79 93.09-37.35 99.16-37.35 105.2 0 101.04 0 96.5-28.22 95.82-34.81 94.33-28.17 85.91-0.02 81.1-0.02 72.31-28.32 70.58-34.81 69.75-28.27 65.62 0 61.42 0ZM114.18 0L114.18-37.13Q114.18-37.13 117.84-37.4L117.84-37.4Q123.33-37.84 126.6-37.84 129.88-37.84 131.83-37.59 133.78-37.33 135.26-36.71 136.74-36.08 137.77-35.01 138.81-33.94 139.47-32.28L139.47-32.28Q140.72-29.17 140.72-23.05L140.72-23.05 140.72-19.26Q140.72-12.01 139.64-8.25L139.64-8.25Q138.4-3.91 135.17-2L135.17-2Q131.85 0 125.43 0L125.43 0 114.18 0ZM134.9-31.42Q134.03-32.81 132.37-33.52 130.71-34.23 127.26-34.23 123.82-34.23 118.33-33.81L118.33-33.81 118.33-3.49 126.09-3.49Q130.63-3.49 132.83-4.98L132.83-4.98Q134.98-6.42 135.71-9.94L135.71-9.94Q136.35-12.82 136.35-19.26L136.35-19.26 136.35-23.07Q136.35-29.15 134.9-31.42L134.9-31.42ZM147.06 0L159.29-37.35 164.98-37.35 178.04 0 173.62 0 169.91-10.96 154.87-10.96 151.36 0 147.06 0ZM156-14.45L168.74-14.45 162.15-34.06 161.39-31.27 156-14.45Z" opacity="1" transform="matrix(1,0,0,1,0,0)" fill="#ffffff" class="undefined-text-0" data-fill-palette-color="quaternary" id="text-0"></path></svg></g></svg></g></svg></g></svg></g></svg></g><defs></defs></svg><rect width="395.52" height="123.70605293284216" fill="none" stroke="none" visibility="hidden"></rect></g></svg></g></svg>