<?xml version="1.0" standalone="no"?>
<!DOCTYPE svg PUBLIC "-//W3C//DTD SVG 20010904//EN"
 "http://www.w3.org/TR/2001/REC-SVG-20010904/DTD/svg10.dtd">
<svg version="1.0" xmlns="http://www.w3.org/2000/svg"
 width="820.000000pt" height="290.000000pt" viewBox="0 0 820.000000 290.000000"
 preserveAspectRatio="xMidYMid meet">

<g transform="translate(0.000000,290.000000) scale(0.100000,-0.100000)"
fill="#000000" stroke="none">
<path d="M190 1460 l0 -1340 1220 0 1220 0 0 1340 0 1340 -1220 0 -1220 0 0
-1340z m1142 1038 c40 -32 28 -73 -49 -167 -29 -36 -45 -67 -53 -104 -7 -37
-10 -268 -8 -748 3 -688 3 -694 25 -741 16 -35 32 -52 63 -68 39 -20 54 -21
229 -18 169 3 190 5 227 25 57 31 110 93 174 208 30 54 71 116 91 137 33 35
40 38 93 38 85 0 85 1 36 -295 -23 -137 -46 -257 -51 -266 -27 -51 -1 -49
-773 -49 -655 0 -721 1 -738 17 -26 23 -23 74 7 114 13 19 37 52 52 73 l28 40
3 760 c2 419 0 775 -3 793 -3 17 -28 62 -55 99 -55 75 -67 133 -32 153 27 16
714 14 734 -1z"/>
<path d="M3010 1485 l0 -525 300 0 300 0 0 60 0 60 -235 0 -235 0 0 465 0 465
-65 0 -65 0 0 -525z"/>
<path d="M3937 1503 c-124 -280 -229 -516 -233 -525 -5 -16 1 -18 59 -18 l64
0 54 125 54 125 280 0 280 0 54 -125 54 -125 63 0 c35 0 64 3 64 7 0 4 -105
240 -232 525 l-233 518 -51 0 -51 0 -226 -507z m406 47 l103 -235 -112 -3
c-62 -1 -166 -1 -231 0 l-119 3 115 264 c113 258 115 263 129 235 7 -16 59
-135 115 -264z"/>
<path d="M4850 1485 l0 -525 65 0 65 0 2 378 3 377 180 -375 181 -375 50 -3
50 -3 180 375 179 375 3 -375 2 -374 65 0 65 0 0 525 0 526 -61 -3 -61 -3
-206 -432 c-114 -238 -210 -432 -213 -433 -4 0 -13 15 -20 34 -8 19 -102 215
-209 435 l-195 401 -62 0 -63 0 0 -525z"/>
<path d="M6120 1485 l0 -525 174 0 c111 0 202 5 250 15 245 46 416 256 416
510 0 254 -171 464 -416 510 -48 10 -139 15 -250 15 l-174 0 0 -525z m402 394
c192 -41 308 -190 308 -394 0 -166 -72 -290 -207 -358 -68 -35 -138 -47 -263
-47 l-110 0 0 405 0 405 110 0 c60 0 133 -5 162 -11z"/>
<path d="M7512 1993 c-6 -10 -110 -243 -232 -518 -122 -275 -224 -503 -227
-507 -2 -5 27 -8 64 -8 l68 0 54 125 54 125 279 -2 279 -3 50 -115 c28 -63 54
-119 58 -123 5 -4 36 -7 69 -5 l61 3 -232 520 -233 520 -51 3 c-42 2 -54 -1
-61 -15z m176 -417 c62 -140 112 -257 112 -260 0 -3 -104 -6 -231 -6 -181 0
-230 3 -226 13 40 100 222 507 227 507 3 0 57 -114 118 -254z"/>
</g>
</svg>
